  0
SECTION
  2
HEADER
  9
$ACADVER
  1
AC1015
  9
$ACADMAINTVER
 70
     6
  9
$DWGCODEPAGE
  3
ANSI_1252
  9
$INSBASE
 10
0.0
 20
0.0
 30
0.0
  9
$EXTMIN
 10
-85.0
 20
-40.0
 30
0.0
  9
$EXTMAX
 10
85.0
 20
40.0
 30
0.0
  9
$LIMMIN
 10
0.0
 20
0.0
  9
$LIMMAX
 10
420.0
 20
297.0
  9
$ORTHOMODE
 70
     0
  9
$REGENMODE
 70
     1
  9
$FILLMODE
 70
     1
  9
$QTEXTMODE
 70
     0
  9
$MIRRTEXT
 70
     1
  9
$LTSCALE
 40
1.0
  9
$ATTMODE
 70
     1
  9
$TEXTSIZE
 40
3.175
  9
$TRACEWID
 40
1.0
  9
$TEXTSTYLE
  7
Standard
  9
$CLAYER
  8
0
  9
$CELTYPE
  6
ByLayer
  9
$CECOLOR
 62
   256
  9
$CELTSCALE
 40
1.0
  9
$DISPSILH
 70
     0
  9
$DIMSCALE
 40
1.0
  9
$DIMASZ
 40
3.302
  9
$DIMEXO
 40
1.27
  9
$DIMDLI
 40
3.75
  9
$DIMRND
 40
0.0
  9
$DIMDLE
 40
0.0
  9
$DIMEXE
 40
3.175
  9
$DIMTP
 40
0.0
  9
$DIMTM
 40
0.0
  9
$DIMTXT
 40
3.175
  9
$DIMCEN
 40
2.5
  9
$DIMTSZ
 40
0.0
  9
$DIMTOL
 70
     0
  9
$DIMLIM
 70
     0
  9
$DIMTIH
 70
     1
  9
$DIMTOH
 70
     1
  9
$DIMSE1
 70
     0
  9
$DIMSE2
 70
     0
  9
$DIMTAD
 70
     0
  9
$DIMZIN
 70
     0
  9
$DIMBLK
  1

  9
$DIMASO
 70
     1
  9
$DIMSHO
 70
     1
  9
$DIMPOST
  1

  9
$DIMAPOST
  1

  9
$DIMALT
 70
     0
  9
$DIMALTD
 70
     3
  9
$DIMALTF
 40
0.0393700787
  9
$DIMLFAC
 40
1.0
  9
$DIMTOFL
 70
     1
  9
$DIMTVP
 40
0.0
  9
$DIMTIX
 70
     0
  9
$DIMSOXD
 70
     0
  9
$DIMSAH
 70
     0
  9
$DIMBLK1
  1

  9
$DIMBLK2
  1

  9
$DIMSTYLE
  2
ISO-25
  9
$DIMCLRD
 70
     0
  9
$DIMCLRE
 70
     0
  9
$DIMCLRT
 70
     0
  9
$DIMTFAC
 40
1.0
  9
$DIMGAP
 40
1.524
  9
$DIMJUST
 70
     0
  9
$DIMSD1
 70
     0
  9
$DIMSD2
 70
     0
  9
$DIMTOLJ
 70
     0
  9
$DIMTZIN
 70
     0
  9
$DIMALTZ
 70
     0
  9
$DIMALTTZ
 70
     0
  9
$DIMUPT
 70
     0
  9
$DIMDEC
 70
     3
  9
$DIMTDEC
 70
     3
  9
$DIMALTU
 70
     2
  9
$DIMALTTD
 70
     3
  9
$DIMTXSTY
  7
Standard
  9
$DIMAUNIT
 70
     0
  9
$DIMADEC
 70
     2
  9
$DIMALTRND
 40
0.0
  9
$DIMAZIN
 70
     0
  9
$DIMDSEP
 70
    44
  9
$DIMATFIT
 70
     3
  9
$DIMFRAC
 70
     0
  9
$DIMLDRBLK
  1

  9
$DIMLUNIT
 70
     2
  9
$DIMLWD
 70
    -2
  9
$DIMLWE
 70
    -2
  9
$DIMTMOVE
 70
     0
  9
$LUNITS
 70
     2
  9
$LUPREC
 70
     2
  9
$SKETCHINC
 40
1.0
  9
$FILLETRAD
 40
10.0
  9
$AUNITS
 70
     0
  9
$AUPREC
 70
     2
  9
$MENU
  1
.
  9
$ELEVATION
 40
0.0
  9
$PELEVATION
 40
0.0
  9
$THICKNESS
 40
0.0
  9
$LIMCHECK
 70
     0
  9
$CHAMFERA
 40
10.0
  9
$CHAMFERB
 40
10.0
  9
$CHAMFERC
 40
20.0
  9
$CHAMFERD
 40
0.0
  9
$SKPOLY
 70
     0
  9
$TDCREATE
 40
2457089.826318785
  9
$TDUCREATE
 40
2457090.034652118
  9
$TDUPDATE
 40
2457089.826318796
  9
$TDUUPDATE
 40
2457090.03465213
  9
$TDINDWG
 40
0.0000000116
  9
$TDUSRTIMER
 40
0.0000000116
  9
$USRTIMER
 70
     1
  9
$ANGBASE
 50
0.0
  9
$ANGDIR
 70
     0
  9
$PDMODE
 70
     0
  9
$PDSIZE
 40
-1.0
  9
$PLINEWID
 40
0.0
  9
$SPLFRAME
 70
     0
  9
$SPLINETYPE
 70
     6
  9
$SPLINESEGS
 70
     8
  9
$HANDSEED
  5
1BA
  9
$SURFTAB1
 70
     6
  9
$SURFTAB2
 70
     6
  9
$SURFTYPE
 70
     6
  9
$SURFU
 70
     6
  9
$SURFV
 70
     6
  9
$UCSBASE
  2

  9
$UCSNAME
  2

  9
$UCSORG
 10
0.0
 20
0.0
 30
0.0
  9
$UCSXDIR
 10
1.0
 20
0.0
 30
0.0
  9
$UCSYDIR
 10
0.0
 20
1.0
 30
0.0
  9
$UCSORTHOREF
  2

  9
$UCSORTHOVIEW
 70
     0
  9
$UCSORGTOP
 10
0.0
 20
0.0
 30
0.0
  9
$UCSORGBOTTOM
 10
0.0
 20
0.0
 30
0.0
  9
$UCSORGLEFT
 10
0.0
 20
0.0
 30
0.0
  9
$UCSORGRIGHT
 10
0.0
 20
0.0
 30
0.0
  9
$UCSORGFRONT
 10
0.0
 20
0.0
 30
0.0
  9
$UCSORGBACK
 10
0.0
 20
0.0
 30
0.0
  9
$PUCSBASE
  2

  9
$PUCSNAME
  2

  9
$PUCSORG
 10
0.0
 20
0.0
 30
0.0
  9
$PUCSXDIR
 10
1.0
 20
0.0
 30
0.0
  9
$PUCSYDIR
 10
0.0
 20
1.0
 30
0.0
  9
$PUCSORTHOREF
  2

  9
$PUCSORTHOVIEW
 70
     0
  9
$PUCSORGTOP
 10
0.0
 20
0.0
 30
0.0
  9
$PUCSORGBOTTOM
 10
0.0
 20
0.0
 30
0.0
  9
$PUCSORGLEFT
 10
0.0
 20
0.0
 30
0.0
  9
$PUCSORGRIGHT
 10
0.0
 20
0.0
 30
0.0
  9
$PUCSORGFRONT
 10
0.0
 20
0.0
 30
0.0
  9
$PUCSORGBACK
 10
0.0
 20
0.0
 30
0.0
  9
$USERI1
 70
     0
  9
$USERI2
 70
     0
  9
$USERI3
 70
     0
  9
$USERI4
 70
     0
  9
$USERI5
 70
     0
  9
$USERR1
 40
0.0
  9
$USERR2
 40
0.0
  9
$USERR3
 40
0.0
  9
$USERR4
 40
0.0
  9
$USERR5
 40
0.0
  9
$WORLDVIEW
 70
     1
  9
$SHADEDGE
 70
     3
  9
$SHADEDIF
 70
    70
  9
$TILEMODE
 70
     1
  9
$MAXACTVP
 70
    64
  9
$PINSBASE
 10
0.0
 20
0.0
 30
0.0
  9
$PLIMCHECK
 70
     0
  9
$PEXTMIN
 10
1.0000000000E+20
 20
1.0000000000E+20
 30
1.0000000000E+20
  9
$PEXTMAX
 10
-1.0000000000E+20
 20
-1.0000000000E+20
 30
-1.0000000000E+20
  9
$PLIMMIN
 10
0.0
 20
0.0
  9
$PLIMMAX
 10
420.0
 20
297.0
  9
$UNITMODE
 70
     0
  9
$VISRETAIN
 70
     1
  9
$PLINEGEN
 70
     0
  9
$PSLTSCALE
 70
     1
  9
$TREEDEPTH
 70
  3020
  9
$CMLSTYLE
  2
Standard
  9
$CMLJUST
 70
     0
  9
$CMLSCALE
 40
20.0
  9
$PROXYGRAPHICS
 70
     1
  9
$MEASUREMENT
 70
     1
  9
$CELWEIGHT
370
    -1
  9
$ENDCAPS
280
     0
  9
$JOINSTYLE
280
     0
  9
$LWDISPLAY
290
     1
  9
$INSUNITS
 70
     4
  9
$HYPERLINKBASE
  1

  9
$STYLESHEET
  1

  9
$XEDIT
290
     1
  9
$CEPSNTYPE
380
     0
  9
$PSTYLEMODE
290
     1
  9
$FINGERPRINTGUID
  2
{74B0A283-80AF-4ED9-98C3-40D5B133DC9E}
  9
$VERSIONGUID
  2
{FAEB1C32-E019-11D5-929B-00C0DF256EC4}
  9
$EXTNAMES
290
     1
  9
$PSVPSCALE
 40
0.0
  9
$OLESTARTUP
290
     0
  0
ENDSEC
  0
SECTION
  2
CLASSES
  0
CLASS
  1
ACDBDICTIONARYWDFLT
  2
AcDbDictionaryWithDefault
  3
ObjectDBX Classes
 90
        0
280
     0
281
     0
  0
CLASS
  1
VISUALSTYLE
  2
AcDbVisualStyle
  3
ObjectDBX Classes
 90
     4095
280
     0
281
     0
  0
CLASS
  1
MATERIAL
  2
AcDbMaterial
  3
ObjectDBX Classes
 90
     1153
280
     0
281
     0
  0
CLASS
  1
SCALE
  2
AcDbScale
  3
ObjectDBX Classes
 90
     1153
280
     0
281
     0
  0
CLASS
  1
DICTIONARYVAR
  2
AcDbDictionaryVar
  3
ObjectDBX Classes
 90
        0
280
     0
281
     0
  0
CLASS
  1
ACDBPLACEHOLDER
  2
AcDbPlaceHolder
  3
ObjectDBX Classes
 90
        0
280
     0
281
     0
  0
CLASS
  1
LAYOUT
  2
AcDbLayout
  3
ObjectDBX Classes
 90
        0
280
     0
281
     0
  0
ENDSEC
  0
SECTION
  2
TABLES
  0
TABLE
  2
VPORT
  5
8
330
0
100
AcDbSymbolTable
 70
     1
  0
VPORT
  5
29
330
8
100
AcDbSymbolTableRecord
100
AcDbViewportTableRecord
  2
*Active
 70
     0
 10
0.0
 20
0.0
 11
1.0
 21
1.0
 12
0.0
 22
-3.0410944721
 13
0.0
 23
0.0
 14
10.0
 24
10.0
 15
10.0
 25
10.0
 16
0.0
 26
0.0
 36
1.0
 17
0.0
 27
0.0
 37
0.0
 40
75.3961672769
 41
2.2998516538
 42
50.0
 43
0.0
 44
0.0
 50
0.0
 51
0.0
 71
     0
 72
   100
 73
     1
 74
     3
 75
     0
 76
     0
 77
     0
 78
     0
281
     0
 65
     1
110
0.0
120
0.0
130
0.0
111
1.0
121
0.0
131
0.0
112
0.0
122
1.0
132
0.0
 79
     0
146
0.0
  0
ENDTAB
  0
TABLE
  2
LTYPE
  5
5
330
0
100
AcDbSymbolTable
 70
     6
  0
LTYPE
  5
14
330
5
100
AcDbSymbolTableRecord
100
AcDbLinetypeTableRecord
  2
ByBlock
 70
     0
  3

 72
    65
 73
     0
 40
0.0
  0
LTYPE
  5
15
330
5
100
AcDbSymbolTableRecord
100
AcDbLinetypeTableRecord
  2
ByLayer
 70
     0
  3

 72
    65
 73
     0
 40
0.0
  0
LTYPE
  5
16
330
5
100
AcDbSymbolTableRecord
100
AcDbLinetypeTableRecord
  2
Continuous
 70
     0
  3
Solid line
 72
    65
 73
     0
 40
0.0
  0
LTYPE
  5
3F
330
5
100
AcDbSymbolTableRecord
100
AcDbLinetypeTableRecord
  2
HIDDEN
 70
     0
  3
Hidden __ __ __ __ __ __ __ __ __ __ __ __ __ __
 72
    65
 73
     2
 40
1.905
 49
1.27
 74
     0
 49
-0.635
 74
     0
  0
LTYPE
  5
40
330
5
100
AcDbSymbolTableRecord
100
AcDbLinetypeTableRecord
  2
PHANTOM
 70
     0
  3
Phantom ______  __  __  ______  __  __  ______
 72
    65
 73
     6
 40
12.7
 49
6.35
 74
     0
 49
-1.27
 74
     0
 49
1.27
 74
     0
 49
-1.27
 74
     0
 49
1.27
 74
     0
 49
-1.27
 74
     0
  0
LTYPE
  5
41
330
5
100
AcDbSymbolTableRecord
100
AcDbLinetypeTableRecord
  2
CENTER
 70
     0
  3
Center ____ _ ____ _ ____ _ ____ _ ____ _ ____
 72
    65
 73
     4
 40
10.16
 49
6.35
 74
     0
 49
-1.27
 74
     0
 49
1.27
 74
     0
 49
-1.27
 74
     0
  0
LTYPE
  5
42
330
5
100
AcDbSymbolTableRecord
100
AcDbLinetypeTableRecord
  2
CENTERX2
 70
     0
  3
Center (2x) ________  __  ________  __  _____
 72
    65
 73
     4
 40
20.32
 49
12.7
 74
     0
 49
-2.54
 74
     0
 49
2.54
 74
     0
 49
-2.54
 74
     0
  0
LTYPE
  5
43
330
5
100
AcDbSymbolTableRecord
100
AcDbLinetypeTableRecord
  2
DOT2
 70
     0
  3
Dot (.5x) ........................................
 72
    65
 73
     2
 40
0.635
 49
0.0
 74
     0
 49
-0.635
 74
     0
  0
ENDTAB
  0
TABLE
  2
LAYER
  5
2
330
0
100
AcDbSymbolTable
 70
     1
  0
LAYER
  5
10
330
2
100
AcDbSymbolTableRecord
100
AcDbLayerTableRecord
  2
0
 70
     0
 62
     7
  6
Continuous
370
    -3
390
F
  0
ENDTAB
  0
TABLE
  2
STYLE
  5
3
330
0
100
AcDbSymbolTable
 70
     1
  0
STYLE
  5
11
330
3
100
AcDbSymbolTableRecord
100
AcDbTextStyleTableRecord
  2
Standard
 70
     0
 40
0.0
 41
1.0
 50
0.0
 71
     0
 42
2.5
  3
txt
  4

  0
ENDTAB
  0
TABLE
  2
VIEW
  5
6
330
0
100
AcDbSymbolTable
 70
     0
  0
ENDTAB
  0
TABLE
  2
UCS
  5
7
330
0
100
AcDbSymbolTable
 70
     0
  0
ENDTAB
  0
TABLE
  2
APPID
  5
9
330
0
100
AcDbSymbolTable
 70
     1
  0
APPID
  5
12
330
9
100
AcDbSymbolTableRecord
100
AcDbRegAppTableRecord
  2
ACAD
 70
     0
  0
ENDTAB
  0
TABLE
  2
DIMSTYLE
  5
A
330
0
100
AcDbSymbolTable
 70
     1
100
AcDbDimStyleTable
  0
DIMSTYLE
105
27
330
A
100
AcDbSymbolTableRecord
100
AcDbDimStyleTableRecord
  2
ISO-25
 70
     0
 41
2.5
 42
0.625
 43
3.75
 44
1.25
 73
     0
 74
     0
 77
     1
 78
     8
140
2.5
141
2.5
143
0.0393700787
147
0.625
171
     3
172
     1
178
     0
271
     2
272
     2
274
     3
278
    44
283
     0
284
     8
340
11
  0
ENDTAB
  0
TABLE
  2
BLOCK_RECORD
  5
1
330
0
100
AcDbSymbolTable
 70
     1
  0
BLOCK_RECORD
  5
1F
330
1
100
AcDbSymbolTableRecord
100
AcDbBlockTableRecord
  2
*Model_Space
340
22
  0
BLOCK_RECORD
  5
1B
330
1
100
AcDbSymbolTableRecord
100
AcDbBlockTableRecord
  2
*Paper_Space
340
1E
  0
BLOCK_RECORD
  5
23
330
1
100
AcDbSymbolTableRecord
100
AcDbBlockTableRecord
  2
*Paper_Space0
340
26
  0
ENDTAB
  0
ENDSEC
  0
SECTION
  2
BLOCKS
  0
BLOCK
  5
20
330
1F
100
AcDbEntity
  8
0
100
AcDbBlockBegin
  2
*Model_Space
 70
     0
 10
0.0
 20
0.0
 30
0.0
  3
*Model_Space
  1

  0
ENDBLK
  5
21
330
1F
100
AcDbEntity
  8
0
100
AcDbBlockEnd
  0
BLOCK
  5
1C
330
1B
100
AcDbEntity
 67
     1
  8
0
100
AcDbBlockBegin
  2
*Paper_Space
 70
     0
 10
0.0
 20
0.0
 30
0.0
  3
*Paper_Space
  1

  0
ENDBLK
  5
1D
330
1B
100
AcDbEntity
 67
     1
  8
0
100
AcDbBlockEnd
  0
BLOCK
  5
24
330
23
100
AcDbEntity
  8
0
100
AcDbBlockBegin
  2
*Paper_Space0
 70
     0
 10
0.0
 20
0.0
 30
0.0
  3
*Paper_Space0
  1

  0
ENDBLK
  5
25
330
23
100
AcDbEntity
  8
0
100
AcDbBlockEnd
  0
ENDSEC
  0
SECTION
  2
ENTITIES
  0
CIRCLE
  5
44
330
1F
100
AcDbEntity
  8
0
  6
CENTERX2
 62
     7
 60
     1
100
AcDbCircle
 10
-68.729764758
 20
6.2589985252
 30
0.0
 40
3.000000000000004
  0
CIRCLE
  5
45
330
1F
100
AcDbEntity
  8
0
  6
CENTERX2
 62
     7
 60
     1
100
AcDbCircle
 10
-78.8633814178
 20
-30.1028024308
 30
0.0
 40
3.000000000000019
  0
CIRCLE
  5
46
330
1F
100
AcDbEntity
  8
0
  6
CENTERX2
 62
     7
 60
     1
100
AcDbCircle
 10
-25.3340416497
 20
-5.5436844081
 30
0.0
 40
3.000000000000008
  0
CIRCLE
  5
47
330
1F
100
AcDbEntity
  8
0
  6
CENTERX2
 62
     7
 60
     1
100
AcDbCircle
 10
-11.1469783259
 20
28.552955177
 30
0.0
 40
3.000000000000014
  0
CIRCLE
  5
48
330
1F
100
AcDbEntity
  8
0
  6
CENTERX2
 62
     7
 60
     1
100
AcDbCircle
 10
64.676318094
 20
-10.5508832282
 30
0.0
 40
3.000000000000003
  0
CIRCLE
  5
49
330
1F
100
AcDbEntity
  8
0
  6
CENTERX2
 62
     7
 60
     1
100
AcDbCircle
 10
76.0
 20
-30.103
 30
0.0
 40
3.000000000000035
  0
LINE
  5
4A
330
1F
100
AcDbEntity
  8
0
  6
CENTERX2
 62
     7
 60
     1
100
AcDbLine
 10
-85.0
 20
-35.0
 30
0.0
 11
85.0
 21
-35.0
 31
0.0
  0
LINE
  5
4B
330
1F
100
AcDbEntity
  8
0
  6
CENTERX2
 62
     7
 60
     1
100
AcDbLine
 10
0.0
 20
-35.0
 30
0.0
 11
0.0
 21
-25.0
 31
0.0
  0
LINE
  5
4C
330
1F
100
AcDbEntity
  8
0
  6
CENTERX2
 62
     7
 60
     1
100
AcDbLine
 10
-18.0
 20
-25.0
 30
0.0
 11
18.0
 21
-25.0
 31
0.0
  0
LINE
  5
4D
330
1F
100
AcDbEntity
  8
0
  6
CENTERX2
 62
     7
 60
     1
100
AcDbLine
 10
-18.0
 20
-30.0
 30
0.0
 11
-18.0
 21
-15.0
 31
0.0
  0
LINE
  5
4E
330
1F
100
AcDbEntity
  8
0
  6
CENTERX2
 62
     7
 60
     1
100
AcDbLine
 10
-18.0
 20
-15.0
 30
0.0
 11
18.0
 21
-15.0
 31
0.0
  0
LINE
  5
4F
330
1F
100
AcDbEntity
  8
0
  6
CENTERX2
 62
     7
 60
     1
100
AcDbLine
 10
18.0
 20
-15.0
 30
0.0
 11
18.0
 21
-30.0
 31
0.0
  0
LINE
  5
50
330
1F
100
AcDbEntity
  8
0
  6
CENTERX2
 62
     7
 60
     1
100
AcDbLine
 10
18.0
 20
-30.0
 30
0.0
 11
-18.0
 21
-30.0
 31
0.0
  0
LINE
  5
51
330
1F
100
AcDbEntity
  8
0
  6
CENTERX2
 62
     7
 60
     1
100
AcDbLine
 10
-85.0
 20
-35.0
 30
0.0
 11
-64.9038105677
 21
40.0
 31
0.0
  0
LINE
  5
52
330
1F
100
AcDbEntity
  8
0
  6
CENTERX2
 62
     7
 60
     1
100
AcDbLine
 10
-72.1578836369
 20
12.9274307438
 30
0.0
 11
-14.2023340595
 21
-2.6017119623
 31
0.0
  0
LINE
  5
53
330
1F
100
AcDbEntity
  8
0
  6
CENTERX2
 62
     7
 60
     1
100
AcDbLine
 10
-62.498625374
 20
10.3392402928
 30
0.0
 11
-72.8513871781
 21
-28.2977927588
 31
0.0
  0
LINE
  5
54
330
1F
100
AcDbEntity
  8
0
  6
CENTERX2
 62
     7
 60
     1
100
AcDbLine
 10
-72.8513871781
 20
-28.2977927588
 30
0.0
 11
-58.3624997838
 21
-32.1800784353
 31
0.0
  0
LINE
  5
55
330
1F
100
AcDbEntity
  8
0
  6
CENTERX2
 62
     7
 60
     1
100
AcDbLine
 10
-58.3624997838
 20
-32.1800784353
 30
0.0
 11
-48.0097379797
 21
6.4569546163
 31
0.0
  0
LINE
  5
56
330
1F
100
AcDbEntity
  8
0
  6
CENTERX2
 62
     7
 60
     1
100
AcDbLine
 10
-66.9815027348
 20
32.2459472696
 30
0.0
 11
-9.0259531575
 21
16.7168045635
 31
0.0
  0
LINE
  5
57
330
1F
100
AcDbEntity
  8
0
  6
CENTERX2
 62
     7
 60
     1
100
AcDbLine
 10
-9.0259531575
 20
16.7168045635
 30
0.0
 11
-14.2023340595
 21
-2.6017119623
 31
0.0
  0
LINE
  5
58
330
1F
100
AcDbEntity
  8
0
  6
CENTERX2
 62
     7
 60
     1
100
AcDbLine
 10
-71.6402455467
 20
14.8592823964
 30
0.0
 11
-13.6846959693
 21
-0.6698603097
 31
0.0
  0
LINE
  5
59
330
1F
100
AcDbEntity
  8
0
  6
Continuous
 62
     7
 60
     1
100
AcDbLine
 10
-67.1315919978
 20
3.1855893711
 30
0.0
 11
-65.2690279742
 21
6.1063521581
 31
0.0
  0
LINE
  5
5A
330
1F
100
AcDbEntity
  8
0
  6
Continuous
 62
     7
 60
     1
100
AcDbLine
 10
-65.2690279742
 20
6.1063521581
 30
0.0
 11
-66.8672007343
 21
9.1797613122
 31
0.0
  0
LINE
  5
5B
330
1F
100
AcDbEntity
  8
0
  6
Continuous
 62
     7
 60
     1
100
AcDbLine
 10
-66.8672007343
 20
9.1797613122
 30
0.0
 11
-70.3279375181
 21
9.3324076794
 31
0.0
  0
LINE
  5
5C
330
1F
100
AcDbEntity
  8
0
  6
Continuous
 62
     7
 60
     1
100
AcDbLine
 10
-70.3279375181
 20
9.3324076794
 30
0.0
 11
-72.1905015417
 21
6.4116448924
 31
0.0
  0
LINE
  5
5D
330
1F
100
AcDbEntity
  8
0
  6
Continuous
 62
     7
 60
     1
100
AcDbLine
 10
-72.1905015417
 20
6.4116448924
 30
0.0
 11
-70.5923287816
 21
3.3382357382
 31
0.0
  0
LINE
  5
5E
330
1F
100
AcDbEntity
  8
0
  6
Continuous
 62
     7
 60
     1
100
AcDbLine
 10
-70.5923287816
 20
3.3382357382
 30
0.0
 11
-67.1315919978
 21
3.1855893711
 31
0.0
  0
LINE
  5
5F
330
1F
100
AcDbEntity
  8
0
  6
Continuous
 62
     7
 60
     1
100
AcDbLine
 10
-75.7181178475
 20
-31.5544625402
 30
0.0
 11
-76.0335751003
 21
-28.104754332
 31
0.0
  0
LINE
  5
60
330
1F
100
AcDbEntity
  8
0
  6
Continuous
 62
     7
 60
     1
100
AcDbLine
 10
-76.0335751003
 20
-28.104754332
 30
0.0
 11
-79.1788386706
 21
-26.6530942227
 31
0.0
  0
LINE
  5
61
330
1F
100
AcDbEntity
  8
0
  6
Continuous
 62
     7
 60
     1
100
AcDbLine
 10
-79.1788386706
 20
-26.6530942227
 30
0.0
 11
-82.0086449882
 21
-28.6511423215
 31
0.0
  0
LINE
  5
62
330
1F
100
AcDbEntity
  8
0
  6
Continuous
 62
     7
 60
     1
100
AcDbLine
 10
-82.0086449882
 20
-28.6511423215
 30
0.0
 11
-81.6931877354
 21
-32.1008505297
 31
0.0
  0
LINE
  5
63
330
1F
100
AcDbEntity
  8
0
  6
Continuous
 62
     7
 60
     1
100
AcDbLine
 10
-81.6931877354
 20
-32.1008505297
 30
0.0
 11
-78.5479241651
 21
-33.552510639
 31
0.0
  0
LINE
  5
64
330
1F
100
AcDbEntity
  8
0
  6
Continuous
 62
     7
 60
     1
100
AcDbLine
 10
-78.5479241651
 20
-33.552510639
 30
0.0
 11
-75.7181178475
 21
-31.5544625402
 31
0.0
  0
LINE
  5
65
330
1F
100
AcDbEntity
  8
0
  6
Continuous
 62
     7
 60
     1
100
AcDbLine
 10
-22.2966743687
 20
-7.2093374331
 30
0.0
 11
-22.3728601756
 21
-3.7460736946
 31
0.0
  0
LINE
  5
66
330
1F
100
AcDbEntity
  8
0
  6
Continuous
 62
     7
 60
     1
100
AcDbLine
 10
-22.3728601756
 20
-3.7460736946
 30
0.0
 11
-25.4102274566
 21
-2.0804206695
 31
0.0
  0
LINE
  5
67
330
1F
100
AcDbEntity
  8
0
  6
Continuous
 62
     7
 60
     1
100
AcDbLine
 10
-25.4102274566
 20
-2.0804206695
 30
0.0
 11
-28.3714089308
 21
-3.878031383
 31
0.0
  0
LINE
  5
68
330
1F
100
AcDbEntity
  8
0
  6
Continuous
 62
     7
 60
     1
100
AcDbLine
 10
-28.3714089308
 20
-3.878031383
 30
0.0
 11
-28.2952231239
 21
-7.3412951215
 31
0.0
  0
LINE
  5
69
330
1F
100
AcDbEntity
  8
0
  6
Continuous
 62
     7
 60
     1
100
AcDbLine
 10
-28.2952231239
 20
-7.3412951215
 30
0.0
 11
-25.2578558428
 21
-9.0069481466
 31
0.0
  0
LINE
  5
6A
330
1F
100
AcDbEntity
  8
0
  6
Continuous
 62
     7
 60
     1
100
AcDbLine
 10
-25.2578558428
 20
-9.0069481466
 30
0.0
 11
-22.2966743687
 21
-7.2093374331
 31
0.0
  0
LINE
  5
6B
330
1F
100
AcDbEntity
  8
0
  6
CENTERX2
 62
     7
100
AcDbLine
 10
-70.8342084918
 20
17.8674536379
 30
0.0
 11
-10.4316642087
 21
33.9178110557
 31
0.0
  0
LINE
  5
6C
330
1F
100
AcDbEntity
  8
0
  6
CENTERX2
 62
     7
100
AcDbLine
 10
-10.4316642087
 20
33.9178110557
 30
0.0
 11
68.968202797
 21
-5.1860273495
 31
0.0
  0
LINE
  5
6D
330
1F
100
AcDbEntity
  8
0
  6
CENTERX2
 62
     7
100
AcDbLine
 10
68.968202797
 20
-5.1860273495
 30
0.0
 11
85.0
 21
-35.0
 31
0.0
  0
LINE
  5
6E
330
1F
100
AcDbEntity
  8
0
  6
Continuous
 62
     7
 60
     1
100
AcDbLine
 10
-8.0969369666
 20
26.9106252143
 30
0.0
 11
-8.1996581771
 21
30.3732034954
 31
0.0
  0
LINE
  5
6F
330
1F
100
AcDbEntity
  8
0
  6
Continuous
 62
     7
 60
     1
100
AcDbLine
 10
-8.1996581771
 20
30.3732034954
 30
0.0
 11
-11.2496995364
 21
32.0155334581
 31
0.0
  0
LINE
  5
70
330
1F
100
AcDbEntity
  8
0
  6
Continuous
 62
     7
 60
     1
100
AcDbLine
 10
-11.2496995364
 20
32.0155334581
 30
0.0
 11
-14.1970196852
 21
30.1952851397
 31
0.0
  0
LINE
  5
71
330
1F
100
AcDbEntity
  8
0
  6
Continuous
 62
     7
 60
     1
100
AcDbLine
 10
-14.1970196852
 20
30.1952851397
 30
0.0
 11
-14.0942984746
 21
26.7327068586
 31
0.0
  0
LINE
  5
72
330
1F
100
AcDbEntity
  8
0
  6
Continuous
 62
     7
 60
     1
100
AcDbLine
 10
-14.0942984746
 20
26.7327068586
 30
0.0
 11
-11.0442571153
 21
25.0903768959
 31
0.0
  0
LINE
  5
73
330
1F
100
AcDbEntity
  8
0
  6
Continuous
 62
     7
 60
     1
100
AcDbLine
 10
-11.0442571153
 20
25.0903768959
 30
0.0
 11
-8.0969369666
 21
26.9106252143
 31
0.0
  0
LINE
  5
74
330
1F
100
AcDbEntity
  8
0
  6
Continuous
 62
     7
 60
     1
100
AcDbLine
 10
67.9827337275
 20
-9.5176283428
 30
0.0
 11
65.4347009314
 21
-7.1708158514
 31
0.0
  0
LINE
  5
75
330
1F
100
AcDbEntity
  8
0
  6
Continuous
 62
     7
 60
     1
100
AcDbLine
 10
65.4347009314
 20
-7.1708158514
 30
0.0
 11
62.1282852978
 21
-8.2040707369
 31
0.0
  0
LINE
  5
76
330
1F
100
AcDbEntity
  8
0
  6
Continuous
 62
     7
 60
     1
100
AcDbLine
 10
62.1282852978
 20
-8.2040707369
 30
0.0
 11
61.3699024605
 21
-11.5841381137
 31
0.0
  0
LINE
  5
77
330
1F
100
AcDbEntity
  8
0
  6
Continuous
 62
     7
 60
     1
100
AcDbLine
 10
61.3699024605
 20
-11.5841381137
 30
0.0
 11
63.9179352566
 21
-13.9309506051
 31
0.0
  0
LINE
  5
78
330
1F
100
AcDbEntity
  8
0
  6
Continuous
 62
     7
 60
     1
100
AcDbLine
 10
63.9179352566
 20
-13.9309506051
 30
0.0
 11
67.2243508902
 21
-12.8976957196
 31
0.0
  0
LINE
  5
79
330
1F
100
AcDbEntity
  8
0
  6
Continuous
 62
     7
 60
     1
100
AcDbLine
 10
67.2243508902
 20
-12.8976957196
 30
0.0
 11
67.9827337275
 21
-9.5176283428
 31
0.0
  0
LINE
  5
7A
330
1F
100
AcDbEntity
  8
0
  6
Continuous
 62
     7
 60
     1
100
AcDbLine
 10
79.007682471
 20
-31.8216756977
 30
0.0
 11
78.9922580506
 21
-28.3576084225
 31
0.0
  0
LINE
  5
7B
330
1F
100
AcDbEntity
  8
0
  6
Continuous
 62
     7
 60
     1
100
AcDbLine
 10
78.9922580506
 20
-28.3576084225
 30
0.0
 11
75.9845755796
 21
-26.6389327248
 31
0.0
  0
LINE
  5
7C
330
1F
100
AcDbEntity
  8
0
  6
Continuous
 62
     7
 60
     1
100
AcDbLine
 10
75.9845755796
 20
-26.6389327248
 30
0.0
 11
72.992317529
 21
-28.3843243023
 31
0.0
  0
LINE
  5
7D
330
1F
100
AcDbEntity
  8
0
  6
Continuous
 62
     7
 60
     1
100
AcDbLine
 10
72.992317529
 20
-28.3843243023
 30
0.0
 11
73.0077419494
 21
-31.8483915775
 31
0.0
  0
LINE
  5
7F
330
1F
100
AcDbEntity
  8
0
  6
Continuous
 62
     7
 60
     1
100
AcDbLine
 10
76.0154244204
 20
-33.5670672752
 30
0.0
 11
79.007682471
 21
-31.8216756977
 31
0.0
  0
LINE
  5
80
330
1F
100
AcDbEntity
  8
0
  6
CENTERX2
 62
     7
 60
     1
100
AcDbLine
 10
-71.8990645918
 20
13.8933565701
 30
0.0
 11
-13.9435150144
 21
-1.635786136
 31
0.0
  0
LINE
  5
81
330
1F
100
AcDbEntity
  8
0
  6
CENTERX2
 62
     7
 60
     1
100
AcDbLine
 10
-71.8990645918
 20
13.8933565701
 30
0.0
 11
-52.580548066
 21
8.7169756681
 31
0.0
  0
LINE
  5
82
330
1F
100
AcDbEntity
  8
0
  6
CENTERX2
 62
     7
 60
     1
100
AcDbLine
 10
-52.580548066
 20
8.7169756681
 30
0.0
 11
-33.2620315402
 21
3.540594766
 31
0.0
  0
LINE
  5
83
330
1F
100
AcDbEntity
  8
0
  6
CENTERX2
 62
     7
 60
     1
100
AcDbLine
 10
-0.1360023456
 20
23.651267687
 30
0.0
 11
53.6902959204
 21
-2.8577801076
 31
0.0
  0
LINE
  5
84
330
1F
100
AcDbEntity
  8
0
  6
CENTERX2
 62
     7
 60
     1
100
AcDbLine
 10
0.3029881673
 20
24.549759384
 30
0.0
 11
54.1292864333
 21
-1.9592884107
 31
0.0
  0
LINE
  5
85
330
1F
100
AcDbEntity
  8
0
  6
CENTERX2
 62
     7
 60
     1
100
AcDbLine
 10
-0.6413064017
 20
22.7883263153
 30
0.0
 11
53.1849918643
 21
-3.7207214793
 31
0.0
  0
LINE
  5
86
330
1F
100
AcDbEntity
  8
0
  6
CENTERX2
 62
     7
 60
     1
100
AcDbLine
 10
-0.1360023456
 20
23.651267687
 30
0.0
 11
17.8060970764
 21
14.8149184221
 31
0.0
  0
LINE
  5
87
330
1F
100
AcDbEntity
  8
0
  6
CENTERX2
 62
     7
 60
     1
100
AcDbLine
 10
17.8060970764
 20
14.8149184221
 30
0.0
 11
35.7481964984
 21
5.9785691573
 31
0.0
  0
LINE
  5
88
330
1F
100
AcDbEntity
  8
0
  6
CENTERX2
 62
     7
 60
     1
100
AcDbLine
 10
-85.0
 20
-36.0
 30
0.0
 11
85.0
 21
-36.0
 31
0.0
  0
LINE
  5
89
330
1F
100
AcDbEntity
  8
0
  6
CENTERX2
 62
     7
100
AcDbLine
 10
-85.0
 20
-36.0
 30
0.0
 11
-85.0
 21
-37.0
 31
0.0
  0
LINE
  5
8A
330
1F
100
AcDbEntity
  8
0
  6
CENTERX2
 62
     7
 60
     1
100
AcDbLine
 10
-85.0
 20
-37.0
 30
0.0
 11
85.0
 21
-37.0
 31
0.0
  0
LINE
  5
8B
330
1F
100
AcDbEntity
  8
0
  6
CENTERX2
 62
     7
 60
     1
100
AcDbLine
 10
-85.0
 20
-36.0
 30
0.0
 11
-28.4
 21
-36.0
 31
0.0
  0
LINE
  5
8C
330
1F
100
AcDbEntity
  8
0
  6
CENTERX2
 62
     7
 60
     1
100
AcDbLine
 10
-28.4
 20
-36.0
 30
0.0
 11
28.2
 21
-36.0
 31
0.0
  0
LINE
  5
8D
330
1F
100
AcDbEntity
  8
0
  6
CENTERX2
 62
     7
 60
     1
100
AcDbLine
 10
-85.0
 20
-36.0
 30
0.0
 11
-77.5
 21
-36.0
 31
0.0
  0
CIRCLE
  5
ED
330
1F
100
AcDbEntity
  8
0
  6
Continuous
 62
     7
370
    15
100
AcDbCircle
 10
-68.729764758
 20
6.2589985252
 30
0.0
 40
1.520000000000002
  0
CIRCLE
  5
EE
330
1F
100
AcDbEntity
  8
0
  6
Continuous
 62
     7
370
    15
100
AcDbCircle
 10
-25.3340416497
 20
-5.5436844081
 30
0.0
 40
1.520000000000001
  0
CIRCLE
  5
EF
330
1F
100
AcDbEntity
  8
0
  6
Continuous
 62
     7
370
    15
100
AcDbCircle
 10
-11.1469783259
 20
28.552955177
 30
0.0
 40
1.519999999999996
  0
CIRCLE
  5
F0
330
1F
100
AcDbEntity
  8
0
  6
Continuous
 62
     7
370
    15
100
AcDbCircle
 10
64.676318094
 20
-10.5508832282
 30
0.0
 40
1.519999999999982
  0
CIRCLE
  5
F1
330
1F
100
AcDbEntity
  8
0
  6
Continuous
 62
     7
370
    15
100
AcDbCircle
 10
76.0
 20
-30.103
 30
0.0
 40
1.519999999999978
  0
CIRCLE
  5
F2
330
1F
100
AcDbEntity
  8
0
  6
Continuous
 62
     7
370
    15
100
AcDbCircle
 10
-78.8633814178
 20
-30.1028024308
 30
0.0
 40
1.519999999999968
  0
LINE
  5
115
330
1F
100
AcDbEntity
  8
0
  6
Continuous
 62
     7
370
    15
100
AcDbLine
 10
41.7
 20
-37.0
 30
0.0
 11
69.0
 21
-37.0
 31
0.0
  0
LINE
  5
116
330
1F
100
AcDbEntity
  8
0
  6
Continuous
 62
     7
370
    15
100
AcDbLine
 10
-38.0255285266
 20
-40.0
 30
0.0
 11
37.8270166538
 21
-40.0
 31
0.0
  0
LINE
  5
117
330
1F
100
AcDbEntity
  8
0
  6
Continuous
 62
     7
370
    15
100
AcDbLine
 10
-41.8985118728
 20
-37.0
 30
0.0
 11
-69.0
 21
-37.0
 31
0.0
  0
LINE
  5
118
330
1F
100
AcDbEntity
  8
0
  6
Continuous
 62
     7
370
    15
100
AcDbLine
 10
-82.0
 20
-40.0
 30
0.0
 11
-72.8729833462
 21
-40.0
 31
0.0
  0
LINE
  5
119
330
1F
100
AcDbEntity
  8
0
  6
Continuous
 62
     7
370
    15
100
AcDbLine
 10
-85.0
 20
-35.3949574928
 30
0.0
 11
-85.0
 21
-37.0
 31
0.0
  0
LINE
  5
11A
330
1F
100
AcDbEntity
  8
0
  6
Continuous
 62
     7
370
    15
100
AcDbLine
 10
-71.2835725423
 20
16.1904041704
 30
0.0
 11
-84.8977774789
 21
-34.6185003575
 31
0.0
  0
LINE
  5
11B
330
1F
100
AcDbEntity
  8
0
  6
Continuous
 62
     7
370
    15
100
AcDbLine
 10
-11.5186087355
 20
33.6289846767
 30
0.0
 11
-69.1562288532
 21
18.3133317587
 31
0.0
  0
LINE
  5
11C
330
1F
100
AcDbEntity
  8
0
  6
Continuous
 62
     7
370
    15
100
AcDbLine
 10
68.1063966234
 20
-4.761594279
 30
0.0
 11
-9.422722556
 21
33.4209148664
 31
0.0
  0
LINE
  5
11D
330
1F
100
AcDbEntity
  8
0
  6
Continuous
 62
     7
370
    15
100
AcDbLine
 10
84.6422223205
 20
-34.3346488971
 30
0.0
 11
69.4231665542
 21
-6.032113215
 31
0.0
  0
LINE
  5
11E
330
1F
100
AcDbEntity
  8
0
  6
Continuous
 62
     7
370
    15
100
AcDbLine
 10
85.0
 20
-37.0
 30
0.0
 11
85.0
 21
-35.7554448743
 31
0.0
  0
LINE
  5
11F
330
1F
100
AcDbEntity
  8
0
  6
Continuous
 62
     7
370
    15
100
AcDbLine
 10
72.8729833462
 20
-40.0
 30
0.0
 11
82.0
 21
-40.0
 31
0.0
  0
LINE
  5
120
330
1F
100
AcDbEntity
  8
0
  6
Continuous
 62
     7
370
    15
100
AcDbLine
 10
20.7
 20
-35.0
 30
0.0
 11
20.7
 21
-37.0
 31
0.0
  0
LINE
  5
121
330
1F
100
AcDbEntity
  8
0
  6
Continuous
 62
     7
370
    15
100
AcDbLine
 10
21.7
 20
-37.0
 30
0.0
 11
34.7
 21
-37.0
 31
0.0
  0
LINE
  5
122
330
1F
100
AcDbEntity
  8
0
  6
Continuous
 62
     7
370
    15
100
AcDbLine
 10
35.7
 20
-37.0
 30
0.0
 11
35.7
 21
-35.0
 31
0.0
  0
LINE
  5
123
330
1F
100
AcDbEntity
  8
0
  6
Continuous
 62
     7
370
    15
100
AcDbLine
 10
34.7
 20
-35.0
 30
0.0
 11
21.7
 21
-35.0
 31
0.0
  0
LINE
  5
124
330
1F
100
AcDbEntity
  8
0
  6
Continuous
 62
     7
370
    15
100
AcDbLine
 10
-35.9014720522
 20
-35.0
 30
0.0
 11
-35.8985118728
 21
-37.0219601964
 31
0.0
  0
LINE
  5
125
330
1F
100
AcDbEntity
  8
0
  6
Continuous
 62
     7
370
    15
100
AcDbLine
 10
-34.9014420392
 20
-37.0205004715
 30
0.0
 11
-21.9012448238
 21
-37.0014679922
 31
0.0
  0
LINE
  5
126
330
1F
100
AcDbEntity
  8
0
  6
Continuous
 62
     7
370
    15
100
AcDbLine
 10
-20.8985279478
 20
-37.0
 30
0.0
 11
-20.9014881272
 21
-34.9780398036
 31
0.0
  0
LINE
  5
127
330
1F
100
AcDbEntity
  8
0
  6
Continuous
 62
     7
370
    15
100
AcDbLine
 10
-21.9012769802
 20
-34.9795035091
 30
0.0
 11
-34.9014741955
 21
-34.9985359885
 31
0.0
  0
LINE
  5
128
330
1F
100
AcDbEntity
  8
0
  6
Continuous
 62
     7
370
    15
100
AcDbLine
 10
31.7254564033
 20
9.1218132545
 30
0.0
 11
30.810310072
 21
7.2746011658
 31
0.0
  0
LINE
  5
129
330
1F
100
AcDbEntity
  8
0
  6
Continuous
 62
     7
370
    15
100
AcDbLine
 10
31.7061163502
 20
6.8308005681
 30
0.0
 11
38.8756931463
 21
3.2788468198
 31
0.0
  0
LINE
  5
12A
330
1F
100
AcDbEntity
  8
0
  6
Continuous
 62
     7
370
    15
100
AcDbLine
 10
39.7709365934
 20
2.83532506
 30
0.0
 11
40.6860829247
 21
4.6825371487
 31
0.0
  0
LINE
  5
12B
330
1F
100
AcDbEntity
  8
0
  6
Continuous
 62
     7
370
    15
100
AcDbLine
 10
39.7902240542
 20
5.1263638017
 30
0.0
 11
32.6207962932
 21
8.678243715
 31
0.0
  0
LINE
  5
12C
330
1F
100
AcDbEntity
  8
0
  6
Continuous
 62
     7
370
    15
100
AcDbLine
 10
13.7784778234
 20
17.9536488566
 30
0.0
 11
12.8629089461
 21
16.0948546297
 31
0.0
  0
LINE
  5
12D
330
1F
100
AcDbEntity
  8
0
  6
Continuous
 62
     7
370
    15
100
AcDbLine
 10
13.7381106931
 20
15.6110965269
 30
0.0
 11
17.6985789636
 21
13.7129939024
 31
0.0
  0
LINE
  5
12E
330
1F
100
AcDbEntity
  8
0
  6
Continuous
 62
     7
370
    15
100
AcDbLine
 10
17.6985789636
 20
13.7129939024
 30
0.0
 11
20.9373125667
 21
12.1177212003
 31
0.0
  0
LINE
  5
12F
330
1F
100
AcDbEntity
  8
0
  6
Continuous
 62
     7
370
    15
100
AcDbLine
 10
21.8337163293
 20
11.6761879877
 30
0.0
 11
22.7492852066
 21
13.5349822146
 31
0.0
  0
LINE
  5
130
330
1F
100
AcDbEntity
  8
0
  6
Continuous
 62
     7
370
    15
100
AcDbLine
 10
21.8527798244
 20
13.976565481
 30
0.0
 11
14.6749690131
 21
17.5120725808
 31
0.0
  0
LINE
  5
131
330
1F
100
AcDbEntity
  8
0
  6
Continuous
 62
     7
370
    15
100
AcDbLine
 10
-17.8037189077
 20
-32.3679638019
 30
0.0
 11
17.4460618491
 21
-32.3679638019
 31
0.0
  0
LINE
  5
132
330
1F
100
AcDbEntity
  8
0
  6
Continuous
 62
     7
370
    15
100
AcDbLine
 10
20.4460618491
 20
-29.3679638019
 30
0.0
 11
20.4460618491
 21
-15.8160445993
 31
0.0
  0
LINE
  5
133
330
1F
100
AcDbEntity
  8
0
  6
Continuous
 62
     7
370
    15
100
AcDbLine
 10
17.4460618491
 20
-12.8160445993
 30
0.0
 11
-17.8037189077
 21
-12.8160445993
 31
0.0
  0
LINE
  5
134
330
1F
100
AcDbEntity
  8
0
  6
Continuous
 62
     7
370
    15
100
AcDbLine
 10
-20.8037189077
 20
-15.8160445993
 30
0.0
 11
-20.8037189077
 21
-29.3679638019
 31
0.0
  0
LINE
  5
135
330
1F
100
AcDbEntity
  8
0
  6
Continuous
 62
     7
370
    15
100
AcDbLine
 10
-42.6099561146
 20
10.7407100242
 30
0.0
 11
-20.4014391447
 21
4.789955837
 31
0.0
  0
LINE
  5
136
330
1F
100
AcDbEntity
  8
0
  6
Continuous
 62
     7
370
    15
100
AcDbLine
 10
-16.6249820093
 20
7.6877333158
 30
0.0
 11
-16.6249820093
 21
19.5398057227
 31
0.0
  0
LINE
  5
137
330
1F
100
AcDbEntity
  8
0
  6
Continuous
 62
     7
370
    15
100
AcDbLine
 10
-20.3954157992
 20
22.4391904463
 30
0.0
 11
-42.6039327691
 21
16.5378722267
 31
0.0
  0
LINE
  5
138
330
1F
100
AcDbEntity
  8
0
  6
Continuous
 62
     7
370
    15
100
AcDbLine
 10
38.5754521864
 20
0.2668495248
 30
0.0
 11
-0.3836988816
 21
19.4539389397
 31
0.0
  0
LINE
  5
139
330
1F
100
AcDbEntity
  8
0
  6
Continuous
 62
     7
370
    15
100
AcDbLine
 10
-4.7091512714
 20
16.7626240264
 30
0.0
 11
-4.7091512714
 21
-2.4244653885
 31
0.0
  0
LINE
  5
13A
330
1F
100
AcDbEntity
  8
0
  6
Continuous
 62
     7
370
    15
100
AcDbLine
 10
-1.7091512714
 20
-5.4244653885
 30
0.0
 11
37.2499997967
 21
-5.4244653885
 31
0.0
  0
LINE
  5
13B
330
1F
100
AcDbEntity
  8
0
  6
Continuous
 62
     7
370
    15
100
AcDbLine
 10
30.579678509
 20
-15.8160445993
 30
0.0
 11
30.579678509
 21
-29.3679638019
 31
0.0
  0
LINE
  5
13C
330
1F
100
AcDbEntity
  8
0
  6
Continuous
 62
     7
370
    15
100
AcDbLine
 10
33.579678509
 20
-32.3679638019
 30
0.0
 11
64.0680153008
 21
-32.3679638019
 31
0.0
  0
LINE
  5
13D
330
1F
100
AcDbEntity
  8
0
  6
Continuous
 62
     7
370
    15
100
AcDbLine
 10
66.7102376213
 20
-27.9471678246
 30
0.0
 11
59.422996068
 21
-14.395248622
 31
0.0
  0
LINE
  5
13E
330
1F
100
AcDbEntity
  8
0
  6
Continuous
 62
     7
370
    15
100
AcDbLine
 10
56.7807737475
 20
-12.8160445993
 30
0.0
 11
33.579678509
 21
-12.8160445993
 31
0.0
  0
LINE
  5
13F
330
1F
100
AcDbEntity
  8
0
  6
Continuous
 62
     7
370
    15
100
AcDbLine
 10
-62.3172789724
 20
-3.8967442175
 30
0.0
 11
-68.9342206279
 21
-28.5915066666
 31
0.0
  0
LINE
  5
140
330
1F
100
AcDbEntity
  8
0
  6
Continuous
 62
     7
370
    15
100
AcDbLine
 10
-66.0364431491
 20
-32.3679638019
 30
0.0
 11
-36.5601539972
 21
-32.3679638019
 31
0.0
  0
LINE
  5
141
330
1F
100
AcDbEntity
  8
0
  6
Continuous
 62
     7
370
    15
100
AcDbLine
 10
-33.5601539972
 20
-29.3679638019
 30
0.0
 11
-33.5601539972
 21
-10.798345054
 31
0.0
  0
LINE
  5
142
330
1F
100
AcDbEntity
  8
0
  6
Continuous
 62
     7
370
    15
100
AcDbLine
 10
-35.7836968619
 20
-7.9005675751
 30
0.0
 11
-58.6430443582
 21
-1.775423874
 31
0.0
  0
LINE
  5
143
330
1F
100
AcDbEntity
  8
0
  6
Continuous
 62
     7
370
    15
100
AcDbLine
 10
-57.1643408623
 20
10.9519038297
 30
0.0
 11
-57.6716748035
 21
9.0110655008
 31
0.0
  0
LINE
  5
144
330
1F
100
AcDbEntity
  8
0
  6
Continuous
 62
     7
370
    15
100
AcDbLine
 10
-56.7045485782
 20
8.7582593025
 30
0.0
 11
-52.3589578723
 21
7.6223245742
 31
0.0
  0
LINE
  5
145
330
1F
100
AcDbEntity
  8
0
  6
Continuous
 62
     7
370
    15
100
AcDbLine
 10
-52.3589578723
 20
7.6223245742
 30
0.0
 11
-48.9694560735
 21
6.7141103045
 31
0.0
  0
LINE
  5
146
330
1F
100
AcDbEntity
  8
0
  6
Continuous
 62
     7
370
    15
100
AcDbLine
 10
-47.9967552698
 20
6.4820475064
 30
0.0
 11
-47.4894213285
 21
8.4228858353
 31
0.0
  0
LINE
  5
147
330
1F
100
AcDbEntity
  8
0
  6
Continuous
 62
     7
370
    15
100
AcDbLine
 10
-48.4565475487
 20
8.6756920323
 30
0.0
 11
-52.8021382598
 21
9.8116267619
 31
0.0
  0
LINE
  5
148
330
1F
100
AcDbEntity
  8
0
  6
Continuous
 62
     7
370
    15
100
AcDbLine
 10
-52.8021382598
 20
9.8116267619
 30
0.0
 11
-56.1916400612
 21
10.7198410324
 31
0.0
  0
LINE
  5
149
330
1F
100
AcDbEntity
  8
0
  6
Continuous
 62
     7
370
    15
100
AcDbLine
 10
-37.8399276652
 20
5.7762210938
 30
0.0
 11
-38.3447998145
 21
3.8879054032
 31
0.0
  0
LINE
  5
14A
330
1F
100
AcDbEntity
  8
0
  6
Continuous
 62
     7
370
    15
100
AcDbLine
 10
-37.3842321937
 20
3.6098589217
 30
0.0
 11
-29.65632302
 21
1.5391718995
 31
0.0
  0
LINE
  5
14B
330
1F
100
AcDbEntity
  8
0
  6
Continuous
 62
     7
370
    15
100
AcDbLine
 10
-28.6841354152
 20
1.3049684382
 30
0.0
 11
-28.179263266
 21
3.1932841289
 31
0.0
  0
LINE
  5
14C
330
1F
100
AcDbEntity
  8
0
  6
Continuous
 62
     7
370
    15
100
AcDbLine
 10
-29.1451890922
 20
3.452103174
 30
0.0
 11
-36.8693123495
 21
5.5424389261
 31
0.0
  0
LINE
  5
14D
330
1F
100
AcDbEntity
  8
0
  6
Continuous
 62
     7
370
    15
100
AcDbLine
 10
-82.5
 20
-35.0
 30
0.0
 11
-82.5
 21
-37.0
 31
0.0
  0
LINE
  5
14E
330
1F
100
AcDbEntity
  8
0
  6
Continuous
 62
     7
370
    15
100
AcDbLine
 10
-81.1406692389
 20
-37.0
 30
0.0
 11
-73.5
 21
-37.0
 31
0.0
  0
LINE
  5
14F
330
1F
100
AcDbEntity
  8
0
  6
Continuous
 62
     7
370
    15
100
AcDbLine
 10
-72.5
 20
-37.0
 30
0.0
 11
-72.5
 21
-35.0
 31
0.0
  0
LINE
  5
150
330
1F
100
AcDbEntity
  8
0
  6
Continuous
 62
     7
370
    15
100
AcDbLine
 10
-73.5
 20
-35.0
 30
0.0
 11
-81.5
 21
-35.0
 31
0.0
  0
LINE
  5
151
330
1F
100
AcDbEntity
  8
0
  6
Continuous
 62
     7
370
    15
100
AcDbLine
 10
72.5
 20
-35.0
 30
0.0
 11
72.5
 21
-37.0
 31
0.0
  0
LINE
  5
152
330
1F
100
AcDbEntity
  8
0
  6
Continuous
 62
     7
370
    15
100
AcDbLine
 10
73.5
 20
-37.0
 30
0.0
 11
81.5
 21
-37.0
 31
0.0
  0
LINE
  5
153
330
1F
100
AcDbEntity
  8
0
  6
Continuous
 62
     7
370
    15
100
AcDbLine
 10
82.5
 20
-37.0
 30
0.0
 11
82.5
 21
-35.0
 31
0.0
  0
LINE
  5
154
330
1F
100
AcDbEntity
  8
0
  6
Continuous
 62
     7
370
    15
100
AcDbLine
 10
81.5
 20
-35.0
 30
0.0
 11
73.5
 21
-35.0
 31
0.0
  0
ARC
  5
155
330
1F
100
AcDbEntity
  8
0
  6
Continuous
 62
     7
370
    15
100
AcDbCircle
 10
72.8729833462
 20
-37.0
 30
0.0
 40
3.000000000000013
100
AcDbArc
 50
194.4775121859
 51
270.0
  0
ARC
  5
156
330
1F
100
AcDbEntity
  8
0
  6
Continuous
 62
     7
370
    15
100
AcDbCircle
 10
69.0
 20
-38.0
 30
0.0
 40
0.9999999999999929
100
AcDbArc
 50
14.4775121859
 51
90.0
  0
ARC
  5
157
330
1F
100
AcDbEntity
  8
0
  6
Continuous
 62
     7
370
    15
100
AcDbCircle
 10
41.7
 20
-38.0
 30
0.0
 40
0.9999999999999868
100
AcDbArc
 50
90.0
 51
165.5224878141
  0
ARC
  5
158
330
1F
100
AcDbEntity
  8
0
  6
Continuous
 62
     7
370
    15
100
AcDbCircle
 10
37.8270166538
 20
-37.0
 30
0.0
 40
2.999999999999993
100
AcDbArc
 50
270.0
 51
345.5224878141
  0
ARC
  5
159
330
1F
100
AcDbEntity
  8
0
  6
Continuous
 62
     7
370
    15
100
AcDbCircle
 10
-38.0255285266
 20
-37.0
 30
0.0
 40
3.000000000000007
100
AcDbArc
 50
194.4775121859
 51
270.0
  0
ARC
  5
15A
330
1F
100
AcDbEntity
  8
0
  6
Continuous
 62
     7
370
    15
100
AcDbCircle
 10
-41.8985118728
 20
-38.0
 30
0.0
 40
0.9999999999999954
100
AcDbArc
 50
14.4775121859
 51
90.0
  0
ARC
  5
15B
330
1F
100
AcDbEntity
  8
0
  6
Continuous
 62
     7
370
    15
100
AcDbCircle
 10
-69.0
 20
-38.0
 30
0.0
 40
1.000000000000039
100
AcDbArc
 50
90.0
 51
165.5224878141
  0
ARC
  5
15C
330
1F
100
AcDbEntity
  8
0
  6
Continuous
 62
     7
370
    15
100
AcDbCircle
 10
-72.8729833462
 20
-37.0
 30
0.0
 40
3.000000000000014
100
AcDbArc
 50
270.0
 51
345.5224878141
  0
ARC
  5
15D
330
1F
100
AcDbEntity
  8
0
  6
Continuous
 62
     7
370
    15
100
AcDbCircle
 10
-82.0
 20
-37.0
 30
0.0
 40
2.999999999999986
100
AcDbArc
 50
180.0
 51
270.0
  0
ARC
  5
15E
330
1F
100
AcDbEntity
  8
0
  6
Continuous
 62
     7
370
    15
100
AcDbCircle
 10
-82.0
 20
-35.3949574928
 30
0.0
 40
2.99999999999838
100
AcDbArc
 50
165.0
 51
180.0
  0
ARC
  5
15F
330
1F
100
AcDbEntity
  8
0
  6
Continuous
 62
     7
370
    15
100
AcDbCircle
 10
-68.3857950634
 20
15.4139470351
 30
0.0
 40
3.000000000000134
100
AcDbArc
 50
104.8809375554
 51
165.0
  0
ARC
  5
160
330
1F
100
AcDbEntity
  8
0
  6
Continuous
 62
     7
370
    15
100
AcDbCircle
 10
-10.7481749457
 20
30.7295999531
 30
0.0
 40
2.999999999999792
100
AcDbArc
 50
63.7800999461
 51
104.8809375554
  0
ARC
  5
161
330
1F
100
AcDbEntity
  8
0
  6
Continuous
 62
     7
370
    15
100
AcDbCircle
 10
66.7809442337
 20
-7.4529091923
 30
0.0
 40
2.999999999999724
100
AcDbArc
 50
28.2681480157
 51
63.7800999461
  0
ARC
  5
162
330
1F
100
AcDbEntity
  8
0
  6
Continuous
 62
     7
370
    15
100
AcDbCircle
 10
82.0
 20
-35.7554448743
 30
0.0
 40
2.99999999999973
100
AcDbArc
 50
0.0
 51
28.2681480157
  0
ARC
  5
163
330
1F
100
AcDbEntity
  8
0
  6
Continuous
 62
     7
370
    15
100
AcDbCircle
 10
82.0
 20
-37.0
 30
0.0
 40
2.999999999999986
100
AcDbArc
 50
270.0
 51
0.0
  0
ARC
  5
164
330
1F
100
AcDbEntity
  8
0
  6
Continuous
 62
     7
370
    15
100
AcDbCircle
 10
21.2
 20
-37.0
 30
0.0
 40
0.4999999999999929
100
AcDbArc
 50
180.0
 51
0.0
  0
ARC
  5
165
330
1F
100
AcDbEntity
  8
0
  6
Continuous
 62
     7
370
    15
100
AcDbCircle
 10
35.2
 20
-37.0
 30
0.0
 40
0.5
100
AcDbArc
 50
180.0
 51
0.0
  0
ARC
  5
166
330
1F
100
AcDbEntity
  8
0
  6
Continuous
 62
     7
370
    15
100
AcDbCircle
 10
35.2
 20
-35.0
 30
0.0
 40
0.5
100
AcDbArc
 50
0.0
 51
180.0
  0
ARC
  5
167
330
1F
100
AcDbEntity
  8
0
  6
Continuous
 62
     7
370
    15
100
AcDbCircle
 10
21.2
 20
-35.0
 30
0.0
 40
0.5
100
AcDbArc
 50
0.0
 51
180.0
  0
ARC
  5
168
330
1F
100
AcDbEntity
  8
0
  6
Continuous
 62
     7
370
    15
100
AcDbCircle
 10
-35.3999919625
 20
-37.0109800982
 30
0.0
 40
0.4986408161542928
100
AcDbArc
 50
181.2617581979
 51
358.9060054048
  0
ARC
  5
169
330
1F
100
AcDbEntity
  8
0
  6
Continuous
 62
     7
370
    15
100
AcDbCircle
 10
-21.3998874604
 20
-37.0
 30
0.0
 40
0.5013595125917689
100
AcDbArc
 50
180.1677636027
 51
0.0
  0
ARC
  5
16A
330
1F
100
AcDbEntity
  8
0
  6
Continuous
 62
     7
370
    15
100
AcDbCircle
 10
-21.4013675501
 20
-34.9890199018
 30
0.0
 40
0.5000000000000043
100
AcDbArc
 50
1.2583277229
 51
178.9094358798
  0
ARC
  5
16B
330
1F
100
AcDbEntity
  8
0
  6
Continuous
 62
     7
370
    15
100
AcDbCircle
 10
-35.4014720522
 20
-35.0
 30
0.0
 40
0.5000000000000022
100
AcDbArc
 50
0.1677636027
 51
180.0
  0
ARC
  5
16C
330
1F
100
AcDbEntity
  8
0
  6
Continuous
 62
     7
370
    15
100
AcDbCircle
 10
31.2635224694
 20
7.0634175424
 30
0.0
 40
0.5000000000000094
100
AcDbArc
 50
155.0158678519
 51
332.274636158
  0
ARC
  5
16D
330
1F
100
AcDbEntity
  8
0
  6
Continuous
 62
     7
370
    15
100
AcDbCircle
 10
39.3328039695
 20
3.0762395757
 30
0.0
 40
0.5000000000000024
100
AcDbArc
 50
156.0954312367
 51
331.1950727732
  0
ARC
  5
16E
330
1F
100
AcDbEntity
  8
0
  6
Continuous
 62
     7
370
    15
100
AcDbCircle
 10
40.2334199523
 20
4.8948958861
 30
0.0
 40
0.4999999999999978
100
AcDbArc
 50
334.8672181965
 51
152.4232858134
  0
ARC
  5
16F
330
1F
100
AcDbEntity
  8
0
  6
Continuous
 62
     7
370
    15
100
AcDbCircle
 10
32.1642130566
 20
8.8820371106
 30
0.0
 40
0.5000000000000052
100
AcDbArc
 50
335.9466693247
 51
151.3438346852
  0
ARC
  5
170
330
1F
100
AcDbEntity
  8
0
  6
Continuous
 62
     7
370
    15
100
AcDbCircle
 10
13.3005098196
 20
15.8529755783
 30
0.0
 40
0.5000000000000018
100
AcDbArc
 50
151.068861316
 51
331.068861316
  0
ARC
  5
171
330
1F
100
AcDbEntity
  8
0
  6
Continuous
 62
     7
370
    15
100
AcDbCircle
 10
21.3940959848
 20
11.914376889
 30
0.0
 40
0.5
100
AcDbArc
 50
156.003011706
 51
331.5509034255
  0
ARC
  5
172
330
1F
100
AcDbEntity
  8
0
  6
Continuous
 62
     7
370
    15
100
AcDbCircle
 10
22.2931210094
 20
13.7397118537
 30
0.0
 40
0.5000000000000014
100
AcDbArc
 50
335.8291279646
 51
151.7247871669
  0
ARC
  5
173
330
1F
100
AcDbEntity
  8
0
  6
Continuous
 62
     7
370
    15
100
AcDbCircle
 10
14.2187149599
 20
17.7166018915
 30
0.0
 40
0.5000000000000034
100
AcDbArc
 50
335.8542874227
 51
151.6996277088
  0
ARC
  5
174
330
1F
100
AcDbEntity
  8
0
  6
Continuous
 62
     7
370
    15
100
AcDbCircle
 10
-17.8037189077
 20
-29.3679638019
 30
0.0
 40
3.000000000000011
100
AcDbArc
 50
180.0
 51
270.0
  0
ARC
  5
175
330
1F
100
AcDbEntity
  8
0
  6
Continuous
 62
     7
370
    15
100
AcDbCircle
 10
17.4460618491
 20
-29.3679638019
 30
0.0
 40
3.0
100
AcDbArc
 50
270.0
 51
0.0
  0
ARC
  5
176
330
1F
100
AcDbEntity
  8
0
  6
Continuous
 62
     7
370
    15
100
AcDbCircle
 10
17.4460618491
 20
-15.8160445993
 30
0.0
 40
3.000000000000007
100
AcDbArc
 50
0.0
 51
90.0
  0
ARC
  5
177
330
1F
100
AcDbEntity
  8
0
  6
Continuous
 62
     7
370
    15
100
AcDbCircle
 10
-17.8037189077
 20
-15.8160445993
 30
0.0
 40
3.000000000000004
100
AcDbArc
 50
90.0
 51
180.0
  0
ARC
  5
178
330
1F
100
AcDbEntity
  8
0
  6
Continuous
 62
     7
370
    15
100
AcDbCircle
 10
-41.8334989793
 20
13.638487503
 30
0.0
 40
3.000000000000002
100
AcDbArc
 50
104.8809375554
 51
255.0
  0
ARC
  5
179
330
1F
100
AcDbEntity
  8
0
  6
Continuous
 62
     7
370
    15
100
AcDbCircle
 10
-19.6249820093
 20
7.6877333158
 30
0.0
 40
2.999999999999997
100
AcDbArc
 50
255.0
 51
0.0
  0
ARC
  5
17A
330
1F
100
AcDbEntity
  8
0
  6
Continuous
 62
     7
370
    15
100
AcDbCircle
 10
-19.6249820093
 20
19.5398057227
 30
0.0
 40
3.000000000000007
100
AcDbArc
 50
0.0
 51
104.8809375554
  0
ARC
  5
17B
330
1F
100
AcDbEntity
  8
0
  6
Continuous
 62
     7
370
    15
100
AcDbCircle
 10
37.2499997967
 20
-2.4244653885
 30
0.0
 40
3.000000000000001
100
AcDbArc
 50
270.0
 51
63.7800999461
  0
ARC
  5
17C
330
1F
100
AcDbEntity
  8
0
  6
Continuous
 62
     7
370
    15
100
AcDbCircle
 10
-1.7091512714
 20
16.7626240264
 30
0.0
 40
3.000000000000002
100
AcDbArc
 50
63.7800999461
 51
180.0
  0
ARC
  5
17D
330
1F
100
AcDbEntity
  8
0
  6
Continuous
 62
     7
370
    15
100
AcDbCircle
 10
-1.7091512714
 20
-2.4244653885
 30
0.0
 40
3.000000000000002
100
AcDbArc
 50
180.0
 51
270.0
  0
ARC
  5
17E
330
1F
100
AcDbEntity
  8
0
  6
Continuous
 62
     7
370
    15
100
AcDbCircle
 10
33.579678509
 20
-15.8160445993
 30
0.0
 40
2.999999999999993
100
AcDbArc
 50
90.0
 51
180.0
  0
ARC
  5
17F
330
1F
100
AcDbEntity
  8
0
  6
Continuous
 62
     7
370
    15
100
AcDbCircle
 10
33.579678509
 20
-29.3679638019
 30
0.0
 40
3.000000000000011
100
AcDbArc
 50
180.0
 51
270.0
  0
ARC
  5
180
330
1F
100
AcDbEntity
  8
0
  6
Continuous
 62
     7
370
    15
100
AcDbCircle
 10
64.0680153008
 20
-29.3679638019
 30
0.0
 40
2.999999999999996
100
AcDbArc
 50
270.0
 51
28.2681480157
  0
ARC
  5
181
330
1F
100
AcDbEntity
  8
0
  6
Continuous
 62
     7
370
    15
100
AcDbCircle
 10
56.7807737475
 20
-15.8160445993
 30
0.0
 40
2.999999999999996
100
AcDbArc
 50
28.2681480157
 51
90.0
  0
ARC
  5
182
330
1F
100
AcDbEntity
  8
0
  6
Continuous
 62
     7
370
    15
100
AcDbCircle
 10
-59.4195014936
 20
-4.6732013528
 30
0.0
 40
3.000000000000008
100
AcDbArc
 50
75.0
 51
165.0
  0
ARC
  5
183
330
1F
100
AcDbEntity
  8
0
  6
Continuous
 62
     7
370
    15
100
AcDbCircle
 10
-66.0364431491
 20
-29.3679638019
 30
0.0
 40
3.000000000000014
100
AcDbArc
 50
165.0
 51
270.0
  0
ARC
  5
184
330
1F
100
AcDbEntity
  8
0
  6
Continuous
 62
     7
370
    15
100
AcDbCircle
 10
-36.5601539972
 20
-29.3679638019
 30
0.0
 40
2.999999999999986
100
AcDbArc
 50
270.0
 51
0.0
  0
ARC
  5
185
330
1F
100
AcDbEntity
  8
0
  6
Continuous
 62
     7
370
    15
100
AcDbCircle
 10
-36.5601539972
 20
-10.798345054
 30
0.0
 40
3.000000000000007
100
AcDbArc
 50
0.0
 51
75.0
  0
ARC
  5
186
330
1F
100
AcDbEntity
  8
0
  6
Continuous
 62
     7
370
    15
100
AcDbCircle
 10
-57.184635118
 20
8.8979622528
 30
0.0
 40
0.4999999999999952
100
AcDbArc
 50
166.9261653858
 51
343.7752497924
  0
ARC
  5
187
330
1F
100
AcDbEntity
  8
0
  6
Continuous
 62
     7
370
    15
100
AcDbCircle
 10
-48.4831056716
 20
6.5980789054
 30
0.0
 40
0.4999999989515723
100
AcDbArc
 50
166.5814521982
 51
346.5814521982
  0
ARC
  5
188
330
1F
100
AcDbEntity
  8
0
  6
Continuous
 62
     7
370
    15
100
AcDbCircle
 10
-47.9764610115
 20
8.5359890827
 30
0.0
 40
0.4999999973650037
100
AcDbArc
 50
346.9261653959
 51
163.7752497822
  0
ARC
  5
189
330
1F
100
AcDbEntity
  8
0
  6
Continuous
 62
     7
370
    15
100
AcDbCircle
 10
-56.6779904617
 20
10.8358724311
 30
0.0
 40
0.4999999975548846
100
AcDbArc
 50
346.5814522026
 51
166.5814522026
  0
ARC
  5
18A
330
1F
100
AcDbEntity
  8
0
  6
Continuous
 62
     7
370
    15
100
AcDbCircle
 10
-37.8645160041
 20
3.7488821625
 30
0.0
 40
0.5000000000000088
100
AcDbArc
 50
163.856352844
 51
343.856352844
  0
ARC
  5
18B
330
1F
100
AcDbEntity
  8
0
  6
Continuous
 62
     7
370
    15
100
AcDbCircle
 10
-29.1861640163
 20
1.3559242045
 30
0.0
 40
0.5046079729883849
100
AcDbArc
 50
158.7063093351
 51
354.2043422603
  0
ARC
  5
18C
330
1F
100
AcDbEntity
  8
0
  6
Continuous
 62
     7
370
    15
100
AcDbCircle
 10
-28.6622261791
 20
3.3226936514
 30
0.0
 40
0.500000000000004
100
AcDbArc
 50
345.0
 51
165.0
  0
ARC
  5
18D
330
1F
100
AcDbEntity
  8
0
  6
Continuous
 62
     7
370
    15
100
AcDbCircle
 10
-37.3546200074
 20
5.65933001
 30
0.0
 40
0.4991863862732676
100
AcDbArc
 50
346.4576983151
 51
166.4576983151
  0
ARC
  5
18E
330
1F
100
AcDbEntity
  8
0
  6
Continuous
 62
     7
370
    15
100
AcDbCircle
 10
-81.8203346195
 20
-37.0
 30
0.0
 40
0.6796653805355106
100
AcDbArc
 50
180.0
 51
0.0
  0
ARC
  5
18F
330
1F
100
AcDbEntity
  8
0
  6
Continuous
 62
     7
370
    15
100
AcDbCircle
 10
-73.0
 20
-37.0
 30
0.0
 40
0.5000000000000142
100
AcDbArc
 50
180.0
 51
0.0
  0
ARC
  5
190
330
1F
100
AcDbEntity
  8
0
  6
Continuous
 62
     7
370
    15
100
AcDbCircle
 10
-73.0
 20
-35.0
 30
0.0
 40
0.5
100
AcDbArc
 50
0.0
 51
180.0
  0
ARC
  5
191
330
1F
100
AcDbEntity
  8
0
  6
Continuous
 62
     7
370
    15
100
AcDbCircle
 10
-82.0
 20
-35.0
 30
0.0
 40
0.5
100
AcDbArc
 50
0.0
 51
180.0
  0
ARC
  5
192
330
1F
100
AcDbEntity
  8
0
  6
Continuous
 62
     7
370
    15
100
AcDbCircle
 10
73.0
 20
-37.0
 30
0.0
 40
0.5000000000000142
100
AcDbArc
 50
180.0
 51
0.0
  0
ARC
  5
193
330
1F
100
AcDbEntity
  8
0
  6
Continuous
 62
     7
370
    15
100
AcDbCircle
 10
82.0
 20
-37.0
 30
0.0
 40
0.5
100
AcDbArc
 50
180.0
 51
0.0
  0
ARC
  5
194
330
1F
100
AcDbEntity
  8
0
  6
Continuous
 62
     7
370
    15
100
AcDbCircle
 10
82.0
 20
-35.0
 30
0.0
 40
0.5
100
AcDbArc
 50
0.0
 51
180.0
  0
ARC
  5
195
330
1F
100
AcDbEntity
  8
0
  6
Continuous
 62
     7
370
    15
100
AcDbCircle
 10
73.0
 20
-35.0
 30
0.0
 40
0.5000000000000142
100
AcDbArc
 50
0.0
 51
180.0
  0
ENDSEC
  0
SECTION
  2
OBJECTS
  0
DICTIONARY
  5
C
330
0
100
AcDbDictionary
281
     1
  3
ACAD_GROUP
350
D
  3
ACAD_LAYOUT
350
1A
  3
ACAD_MLINESTYLE
350
17
  3
ACAD_PLOTSETTINGS
350
19
  3
ACAD_PLOTSTYLENAME
350
E
  3
ACAD_SCALELIST
350
196
  3
AcDbVariableDictionary
350
1B8
  0
DICTIONARY
  5
D
102
{ACAD_REACTORS
330
C
102
}
330
C
100
AcDbDictionary
281
     1
  0
DICTIONARY
  5
1A
102
{ACAD_REACTORS
330
C
102
}
330
C
100
AcDbDictionary
281
     1
  3
Layout1
350
1E
  3
Layout2
350
26
  3
Model
350
22
  0
DICTIONARY
  5
17
102
{ACAD_REACTORS
330
C
102
}
330
C
100
AcDbDictionary
281
     1
  3
Standard
350
18
  0
DICTIONARY
  5
19
102
{ACAD_REACTORS
330
C
102
}
330
C
100
AcDbDictionary
281
     1
  0
ACDBDICTIONARYWDFLT
  5
E
102
{ACAD_REACTORS
330
C
102
}
330
C
100
AcDbDictionary
281
     1
  3
Normal
350
F
100
AcDbDictionaryWithDefault
340
F
  0
DICTIONARY
  5
196
102
{ACAD_REACTORS
330
C
102
}
330
C
100
AcDbDictionary
281
     1
  3
A0
350
197
  3
A1
350
198
  3
A2
350
199
  3
A3
350
19A
  3
A4
350
19B
  3
A5
350
19C
  3
A6
350
19D
  3
A7
350
19E
  3
A8
350
19F
  3
A9
350
1A0
  3
B0
350
1A1
  3
B1
350
1A2
  3
B2
350
1A3
  3
B3
350
1A4
  3
B4
350
1A5
  3
B5
350
1A6
  3
B6
350
1A7
  3
B7
350
1A8
  3
B8
350
1A9
  3
B9
350
1AA
  3
C0
350
1AB
  3
C1
350
1AC
  3
C2
350
1AD
  3
C3
350
1AE
  3
C4
350
1AF
  3
C5
350
1B0
  3
C6
350
1B1
  3
C7
350
1B2
  3
C8
350
1B3
  3
C9
350
1B4
  3
D0
350
1B5
  3
D1
350
1B6
  3
D2
350
1B7
  0
DICTIONARY
  5
1B8
102
{ACAD_REACTORS
330
C
102
}
330
C
100
AcDbDictionary
281
     1
  3
CANNOSCALE
350
1B9
  0
LAYOUT
  5
1E
102
{ACAD_REACTORS
330
1A
102
}
330
1A
100
AcDbPlotSettings
  1

  2
none_device
  4

  6

 40
0.0
 41
0.0
 42
0.0
 43
0.0
 44
0.0
 45
0.0
 46
0.0
 47
0.0
 48
0.0
 49
0.0
140
0.0
141
0.0
142
1.0
143
1.0
 70
   688
 72
     0
 73
     0
 74
     5
  7

 75
    16
147
1.0
148
0.0
149
0.0
100
AcDbLayout
  1
Layout1
 70
     1
 71
     1
 10
0.0
 20
0.0
 11
420.0
 21
297.0
 12
0.0
 22
0.0
 32
0.0
 14
1.0000000000E+20
 24
1.0000000000E+20
 34
1.0000000000E+20
 15
-1.0000000000E+20
 25
-1.0000000000E+20
 35
-1.0000000000E+20
146
0.0
 13
0.0
 23
0.0
 33
0.0
 16
1.0
 26
0.0
 36
0.0
 17
0.0
 27
1.0
 37
0.0
 76
     0
330
1B
  0
LAYOUT
  5
26
102
{ACAD_REACTORS
330
1A
102
}
330
1A
100
AcDbPlotSettings
  1

  2
none_device
  4

  6

 40
0.0
 41
0.0
 42
0.0
 43
0.0
 44
0.0
 45
0.0
 46
0.0
 47
0.0
 48
0.0
 49
0.0
140
0.0
141
0.0
142
1.0
143
1.0
 70
   688
 72
     0
 73
     0
 74
     5
  7

 75
    16
147
1.0
148
0.0
149
0.0
100
AcDbLayout
  1
Layout2
 70
     1
 71
     2
 10
0.0
 20
0.0
 11
0.0
 21
0.0
 12
0.0
 22
0.0
 32
0.0
 14
0.0
 24
0.0
 34
0.0
 15
0.0
 25
0.0
 35
0.0
146
0.0
 13
0.0
 23
0.0
 33
0.0
 16
1.0
 26
0.0
 36
0.0
 17
0.0
 27
1.0
 37
0.0
 76
     0
330
23
  0
LAYOUT
  5
22
102
{ACAD_REACTORS
330
1A
102
}
330
1A
100
AcDbPlotSettings
  1

  2
none_device
  4
ANSI_A_(11.00_x_8.50_Inches)
  6

 40
6.35
 41
19.05
 42
6.35000508
 43
19.05000254
 44
279.4
 45
215.9
 46
133.34999746
 47
88.89999873
 48
0.0
 49
0.0
140
0.0
141
0.0
142
0.0640588235
143
1.0
 70
  1696
 72
     0
 73
     0
 74
     0
  7

 75
     0
147
0.0179189148
148
0.0
149
0.0
100
AcDbLayout
  1
Model
 70
     1
 71
     0
 10
0.0
 20
0.0
 11
420.0
 21
297.0
 12
0.0
 22
0.0
 32
0.0
 14
-85.0
 24
-40.0
 34
0.0
 15
85.0
 25
40.0
 35
0.0
146
0.0
 13
0.0
 23
0.0
 33
0.0
 16
1.0
 26
0.0
 36
0.0
 17
0.0
 27
1.0
 37
0.0
 76
     0
330
1F
331
29
  0
MLINESTYLE
  5
18
102
{ACAD_REACTORS
330
17
102
}
330
17
100
AcDbMlineStyle
  2
Standard
 70
     0
  3

 62
   256
 51
90.0
 52
90.0
 71
     2
 49
0.5
 62
   256
  6
BYLAYER
 49
-0.5
 62
   256
  6
BYLAYER
  0
ACDBPLACEHOLDER
  5
F
102
{ACAD_REACTORS
330
E
102
}
330
E
  0
SCALE
  5
197
102
{ACAD_REACTORS
330
196
102
}
330
196
100
AcDbScale
 70
     0
300
1:1
140
1.0
141
1.0
290
     1
  0
SCALE
  5
198
102
{ACAD_REACTORS
330
196
102
}
330
196
100
AcDbScale
 70
     0
300
1:2
140
1.0
141
2.0
290
     0
  0
SCALE
  5
199
102
{ACAD_REACTORS
330
196
102
}
330
196
100
AcDbScale
 70
     0
300
1:4
140
1.0
141
4.0
290
     0
  0
SCALE
  5
19A
102
{ACAD_REACTORS
330
196
102
}
330
196
100
AcDbScale
 70
     0
300
1:5
140
1.0
141
5.0
290
     0
  0
SCALE
  5
19B
102
{ACAD_REACTORS
330
196
102
}
330
196
100
AcDbScale
 70
     0
300
1:8
140
1.0
141
8.0
290
     0
  0
SCALE
  5
19C
102
{ACAD_REACTORS
330
196
102
}
330
196
100
AcDbScale
 70
     0
300
1:10
140
1.0
141
10.0
290
     0
  0
SCALE
  5
19D
102
{ACAD_REACTORS
330
196
102
}
330
196
100
AcDbScale
 70
     0
300
1:16
140
1.0
141
16.0
290
     0
  0
SCALE
  5
19E
102
{ACAD_REACTORS
330
196
102
}
330
196
100
AcDbScale
 70
     0
300
1:20
140
1.0
141
20.0
290
     0
  0
SCALE
  5
19F
102
{ACAD_REACTORS
330
196
102
}
330
196
100
AcDbScale
 70
     0
300
1:30
140
1.0
141
30.0
290
     0
  0
SCALE
  5
1A0
102
{ACAD_REACTORS
330
196
102
}
330
196
100
AcDbScale
 70
     0
300
1:40
140
1.0
141
40.0
290
     0
  0
SCALE
  5
1A1
102
{ACAD_REACTORS
330
196
102
}
330
196
100
AcDbScale
 70
     0
300
1:50
140
1.0
141
50.0
290
     0
  0
SCALE
  5
1A2
102
{ACAD_REACTORS
330
196
102
}
330
196
100
AcDbScale
 70
     0
300
1:100
140
1.0
141
100.0
290
     0
  0
SCALE
  5
1A3
102
{ACAD_REACTORS
330
196
102
}
330
196
100
AcDbScale
 70
     0
300
2:1
140
2.0
141
1.0
290
     0
  0
SCALE
  5
1A4
102
{ACAD_REACTORS
330
196
102
}
330
196
100
AcDbScale
 70
     0
300
4:1
140
4.0
141
1.0
290
     0
  0
SCALE
  5
1A5
102
{ACAD_REACTORS
330
196
102
}
330
196
100
AcDbScale
 70
     0
300
8:1
140
8.0
141
1.0
290
     0
  0
SCALE
  5
1A6
102
{ACAD_REACTORS
330
196
102
}
330
196
100
AcDbScale
 70
     0
300
10:1
140
10.0
141
1.0
290
     0
  0
SCALE
  5
1A7
102
{ACAD_REACTORS
330
196
102
}
330
196
100
AcDbScale
 70
     0
300
100:1
140
100.0
141
1.0
290
     0
  0
SCALE
  5
1A8
102
{ACAD_REACTORS
330
196
102
}
330
196
100
AcDbScale
 70
     0
300
1/128" = 1'-0"
140
0.0078125
141
12.0
290
     0
  0
SCALE
  5
1A9
102
{ACAD_REACTORS
330
196
102
}
330
196
100
AcDbScale
 70
     0
300
1/64" = 1'-0"
140
0.015625
141
12.0
290
     0
  0
SCALE
  5
1AA
102
{ACAD_REACTORS
330
196
102
}
330
196
100
AcDbScale
 70
     0
300
1/32" = 1'-0"
140
0.03125
141
12.0
290
     0
  0
SCALE
  5
1AB
102
{ACAD_REACTORS
330
196
102
}
330
196
100
AcDbScale
 70
     0
300
1/16" = 1'-0"
140
0.0625
141
12.0
290
     0
  0
SCALE
  5
1AC
102
{ACAD_REACTORS
330
196
102
}
330
196
100
AcDbScale
 70
     0
300
3/32" = 1'-0"
140
0.09375
141
12.0
290
     0
  0
SCALE
  5
1AD
102
{ACAD_REACTORS
330
196
102
}
330
196
100
AcDbScale
 70
     0
300
1/8" = 1'-0"
140
0.125
141
12.0
290
     0
  0
SCALE
  5
1AE
102
{ACAD_REACTORS
330
196
102
}
330
196
100
AcDbScale
 70
     0
300
3/16" = 1'-0"
140
0.1875
141
12.0
290
     0
  0
SCALE
  5
1AF
102
{ACAD_REACTORS
330
196
102
}
330
196
100
AcDbScale
 70
     0
300
1/4" = 1'-0"
140
0.25
141
12.0
290
     0
  0
SCALE
  5
1B0
102
{ACAD_REACTORS
330
196
102
}
330
196
100
AcDbScale
 70
     0
300
3/8" = 1'-0"
140
0.375
141
12.0
290
     0
  0
SCALE
  5
1B1
102
{ACAD_REACTORS
330
196
102
}
330
196
100
AcDbScale
 70
     0
300
1/2" = 1'-0"
140
0.5
141
12.0
290
     0
  0
SCALE
  5
1B2
102
{ACAD_REACTORS
330
196
102
}
330
196
100
AcDbScale
 70
     0
300
3/4" = 1'-0"
140
0.75
141
12.0
290
     0
  0
SCALE
  5
1B3
102
{ACAD_REACTORS
330
196
102
}
330
196
100
AcDbScale
 70
     0
300
1" = 1'-0"
140
1.0
141
12.0
290
     0
  0
SCALE
  5
1B4
102
{ACAD_REACTORS
330
196
102
}
330
196
100
AcDbScale
 70
     0
300
1-1/2" = 1'-0"
140
1.5
141
12.0
290
     0
  0
SCALE
  5
1B5
102
{ACAD_REACTORS
330
196
102
}
330
196
100
AcDbScale
 70
     0
300
3" = 1'-0"
140
3.0
141
12.0
290
     0
  0
SCALE
  5
1B6
102
{ACAD_REACTORS
330
196
102
}
330
196
100
AcDbScale
 70
     0
300
6" = 1'-0"
140
6.0
141
12.0
290
     0
  0
SCALE
  5
1B7
102
{ACAD_REACTORS
330
196
102
}
330
196
100
AcDbScale
 70
     0
300
1'-0" = 1'-0"
140
12.0
141
12.0
290
     0
  0
DICTIONARYVAR
  5
1B9
102
{ACAD_REACTORS
330
1B8
102
}
330
1B8
100
DictionaryVariables
280
     0
  1
1:1
  0
ENDSEC
  0
EOF
